<?xml version="1.0" encoding="UTF-8" standalone="no"?>
<svg
   xmlns:dc="http://purl.org/dc/elements/1.1/"
   xmlns:cc="http://creativecommons.org/ns#"
   xmlns:rdf="http://www.w3.org/1999/02/22-rdf-syntax-ns#"
   xmlns:svg="http://www.w3.org/2000/svg"
   xmlns="http://www.w3.org/2000/svg"
   viewBox="0 0 233.34526 233.34526"
   height="65.855217mm"
   width="65.855217mm"
   version="1.1"
   id="svg3390">
  <metadata
     id="metadata3396">
    <rdf:RDF>
      <cc:Work
         rdf:about="">
        <dc:format>image/svg+xml</dc:format>
        <dc:type
           rdf:resource="http://purl.org/dc/dcmitype/StillImage" />
        <dc:title></dc:title>
      </cc:Work>
    </rdf:RDF>
  </metadata>
  <defs
     id="defs3394" />
  <g
     transform="translate(0,-819.01695)"
     id="layer1" />
  <path
     d=""
     cx="46.757435"
     cy="55.564896"
     r="7.689786"
     id="path4249"
     style="opacity:1;fill:#0000b6;fill-opacity:0.36949152;stroke:none;stroke-width:20;stroke-linecap:butt;stroke-linejoin:round;stroke-miterlimit:4;stroke-dasharray:none;stroke-opacity:1" />
  <path
     d=""
     cx="46.755363"
     cy="55.573547"
     r="7.689786"
     id="path4249-2"
     style="opacity:1;fill:#0000b6;fill-opacity:0.36949152;stroke:none;stroke-width:20;stroke-linecap:butt;stroke-linejoin:round;stroke-miterlimit:4;stroke-dasharray:none;stroke-opacity:1" />
  <g
     transform="translate(0,-819.01695)"
     id="layer2">
    <circle
       r="116.67262"
       cy="935.68958"
       cx="116.67262"
       id="path4161"
       style="opacity:1;fill:#00b050;fill-opacity:1;stroke:none;stroke-width:2.83464575;stroke-linecap:butt;stroke-linejoin:round;stroke-miterlimit:4;stroke-dasharray:none;stroke-opacity:1" />
    <g
       transform="matrix(2.1896174,0,0,2.1896174,-329.33964,573.57545)"
       id="g4143">
      <path
         style="opacity:1;fill:#008d40;fill-opacity:1;stroke:none;stroke-width:20;stroke-linecap:butt;stroke-linejoin:round;stroke-miterlimit:4;stroke-dasharray:none;stroke-opacity:1"
         d="m 200.94532,184.73716 8.125,0 -19.75,12.7344 -8.125,-4e-4 z"
         id="rect4138" />
      <path
         style="opacity:1;fill:#008d40;fill-opacity:1;stroke:none;stroke-width:20;stroke-linecap:butt;stroke-linejoin:round;stroke-miterlimit:4;stroke-dasharray:none;stroke-opacity:1"
         d="m 237.68103,184.58516 8.125,0 -19.75,12.7343 -8.125,-4e-4 z"
         id="rect4138-1" />
      <path
         style="opacity:1;fill:#ffffff;fill-opacity:1;stroke:none;stroke-width:20;stroke-linecap:butt;stroke-linejoin:round;stroke-miterlimit:4;stroke-dasharray:none;stroke-opacity:1"
         d="m 166.68751,132.86216 c -1.108,0 -2,0.892 -2,2 l 0,5.4375 c 0,1.108 0.892,2 2,2 l 13.84375,0 0,10.59375 -9.31425,0 c -0.94781,0 -0.81075,0.44819 -0.81075,1.00586 l 0,2.73829 c 0,0.55766 -0.13706,1.00585 0.81075,1.00585 l 9.31425,0 0,38.74415 c 0,0.8348 0.892,1.5059 2,1.5059 l 5.4375,0 c 1.108,0 2,-0.6711 2,-1.5059 l 0,-38.74415 10.48047,0 2.04296,-4.75 -0.002,0 0.004,-0.01 c -1.16406,-0.48384 -1.92295,-1.62024 -1.92382,-2.88085 -4.9e-4,-1.72502 1.39803,-3.12354 3.12304,-3.12305 1.72425,5.9e-4 3.12159,1.39879 3.1211,3.12305 -0.001,1.26108 -0.76096,2.39762 -1.92578,2.88085 l 0.004,0.01 -0.002,0 2.04296,4.75 10.34766,0 0,38.18755 c 0,1.108 0.892,2 2,2 l 5.4375,0 c 1.108,0 2,-0.892 2,-2 l 0,-38.18755 9.43925,0 c 0.94781,0 0.81075,-0.44819 0.81075,-1.00585 l 0,-2.73829 c 0,-0.55767 0.13706,-1.00586 -0.81075,-1.00586 l -9.43925,0 0,-10.59375 13.78125,0 c 1.108,0 2,-0.892 2,-2 l 0,-5.4375 c 0,-1.108 -0.892,-2 -2,-2 z m 23.28125,9.4375 13.14843,0 c -3.89846,0.32873 -6.89604,3.5877 -6.89843,7.5 0.002,1.06721 0.23124,2.12176 0.67187,3.09375 l -6.92187,0 z m 14.41211,0 12.90039,0 0,10.59375 -6.67578,0 c 0.44197,-0.9717 0.67232,-2.02626 0.67578,-3.09375 -0.002,-3.91299 -3.00115,-7.17222 -6.90039,-7.5 z"
         id="rect3400" />
    </g>
  </g>
  <g
     transform="translate(0,-819.01695)"
     id="layer3" />
</svg>
